<svg t="1733039132001" class="icon" viewBox="0 0 1024 1024" version="1.1" xmlns="http://www.w3.org/2000/svg" p-id="2677" id="mx_n_1733039132002" width="200" height="200"><path d="M538.965333 139.491556c-208.554667 0-377.742222 157.468444-377.742222 352.256 0 105.358222 50.062222 200.021333 127.658667 264.988444-14.904889 40.391111-15.928889 81.92-9.557334 108.544 3.185778 13.880889 15.928889 22.300444 28.785778 22.300444 3.185778 0 6.371556-1.024 9.557334-2.161777 25.486222-8.533333 67.015111-22.300444 91.477333-27.648 37.205333-8.533333 128.796444-13.880889 128.796444-13.880889 208.554667 0 377.742222-157.468444 377.742223-352.142222S747.52 139.491556 538.965333 139.491556z m0 641.592888H534.755556c-9.557333 1.024-97.848889 6.371556-138.353778 14.904889-15.928889 3.185778-35.157333 8.533333-55.296 15.928889 1.024-10.695111 4.209778-21.276444 8.533333-32.995555l14.904889-42.552889-35.157333-28.672c-65.991111-55.296-104.334222-133.006222-104.334223-214.926222 0-159.630222 140.401778-288.312889 313.912889-288.312889 173.397333 0 313.912889 128.796444 313.912889 288.312889S712.362667 781.084444 538.965333 781.084444z" fill="#2c2c2c" p-id="2678"></path><path d="M648.533333 553.756444c-12.743111-10.695111-32.995556-9.557333-44.714666 3.185778-14.904889 17.066667-36.181333 26.624-59.619556 26.624-23.438222 0-44.714667-9.557333-59.619555-26.624-11.719111-12.743111-31.971556-14.904889-44.714667-3.185778-12.743111 11.719111-14.904889 31.971556-3.185778 44.714667 26.624 30.833778 65.991111 47.900444 107.52 47.900445 40.391111 0 79.758222-17.066667 107.52-47.900445 11.719111-12.743111 10.695111-32.995556-3.185778-44.714667zM447.829333 453.176889v-42.211556c0-18.887111-15.246222-34.133333-34.133333-34.133333s-34.133333 15.246222-34.133333 34.133333v42.211556c0 18.887111 15.246222 34.133333 34.133333 34.133333s34.133333-15.36 34.133333-34.133333zM666.168889 376.832c-18.887111 0-34.133333 15.246222-34.133333 34.133333v42.211556c0 18.887111 15.246222 34.133333 34.133333 34.133333s34.133333-15.246222 34.133333-34.133333v-42.211556c0-18.887111-15.246222-34.133333-34.133333-34.133333z" fill="#2c2c2c" p-id="2679"></path></svg>